<svg xmlns="http://www.w3.org/2000/svg" width="1280" height="720" viewBox="0 0 1280 720">
  <defs>
    <linearGradient id="bg1" x1="0%" y1="0%" x2="100%" y2="100%">
      <stop offset="0%" style="stop-color:#01263b"/>
      <stop offset="50%" style="stop-color:#0367a1"/>
      <stop offset="100%" style="stop-color:#00BCD4"/>
    </linearGradient>
    <linearGradient id="badge1" x1="0%" y1="0%" x2="100%" y2="0%">
      <stop offset="0%" style="stop-color:#F6D835"/>
      <stop offset="100%" style="stop-color:#FF4DA6"/>
    </linearGradient>
  </defs>
  
  <!-- Background -->
  <rect width="1280" height="720" fill="url(#bg1)"/>
  
  <!-- Decorative circles -->
  <circle cx="200" cy="150" r="250" fill="rgba(255,255,255,0.03)"/>
  <circle cx="1100" cy="600" r="300" fill="rgba(255,255,255,0.03)"/>
  <circle cx="640" cy="360" r="400" fill="rgba(255,255,255,0.02)"/>
  
  <!-- Left side - White panel -->
  <rect x="60" y="60" width="550" height="600" rx="20" fill="white" opacity="0.95"/>
  
  <!-- Badge -->
  <rect x="90" y="90" width="200" height="36" rx="18" fill="url(#badge1)"/>
  <text x="190" y="114" font-family="Arial, sans-serif" font-size="14" font-weight="bold" fill="white" text-anchor="middle">SAINIK SCHOOL GUIDE</text>
  
  <!-- Main Title -->
  <text x="90" y="180" font-family="Arial, sans-serif" font-size="48" font-weight="bold" fill="#01263b">Sainik School</text>
  <text x="90" y="240" font-family="Arial, sans-serif" font-size="48" font-weight="bold" fill="#00BCD4">Admission 2027</text>
  
  <!-- Subtitle -->
  <text x="90" y="290" font-family="Arial, sans-serif" font-size="22" fill="#374151">Complete Guide: Age Limit, Fees</text>
  <text x="90" y="320" font-family="Arial, sans-serif" font-size="22" fill="#374151">& Step-by-Step Process</text>
  
  <!-- Divider -->
  <rect x="90" y="350" width="100" height="4" rx="2" fill="#00BCD4"/>
  
  <!-- Features -->
  <rect x="90" y="380" width="24" height="24" rx="6" fill="#E6F3FA"/>
  <text x="102" y="397" font-family="Arial, sans-serif" font-size="14" fill="#00BCD4" text-anchor="middle">📋</text>
  <text x="124" y="397" font-family="Arial, sans-serif" font-size="16" fill="#374151">Step-by-Step Process</text>
  
  <rect x="90" y="420" width="24" height="24" rx="6" fill="#E6F3FA"/>
  <text x="102" y="437" font-family="Arial, sans-serif" font-size="14" fill="#00BCD4" text-anchor="middle">💰</text>
  <text x="124" y="437" font-family="Arial, sans-serif" font-size="16" fill="#374151">Fee Structure Details</text>
  
  <rect x="90" y="460" width="24" height="24" rx="6" fill="#E6F3FA"/>
  <text x="102" y="477" font-family="Arial, sans-serif" font-size="14" fill="#00BCD4" text-anchor="middle">📅</text>
  <text x="124" y="477" font-family="Arial, sans-serif" font-size="16" fill="#374151">Important Dates 2027</text>
  
  <rect x="90" y="500" width="24" height="24" rx="6" fill="#E6F3FA"/>
  <text x="102" y="517" font-family="Arial, sans-serif" font-size="14" fill="#00BCD4" text-anchor="middle">✅</text>
  <text x="124" y="517" font-family="Arial, sans-serif" font-size="16" fill="#374151">Eligibility Criteria</text>
  
  <!-- Author -->
  <circle cx="110" cy="580" r="24" fill="#00BCD4"/>
  <text x="110" y="587" font-family="Arial, sans-serif" font-size="16" font-weight="bold" fill="white" text-anchor="middle">N</text>
  <text x="145" y="575" font-family="Arial, sans-serif" font-size="16" font-weight="600" fill="#111928">Nisha</text>
  <text x="145" y="595" font-family="Arial, sans-serif" font-size="13" fill="#6B7280">Education Content Specialist</text>
  
  <!-- Right side - Decorative elements -->
  
  <!-- Stats cards -->
  <rect x="680" y="80" width="250" height="100" rx="12" fill="rgba(255,255,255,0.15)"/>
  <text x="805" y="120" font-family="Arial, sans-serif" font-size="36" font-weight="bold" fill="#F6D835" text-anchor="middle">33+</text>
  <text x="805" y="150" font-family="Arial, sans-serif" font-size="14" fill="rgba(255,255,255,0.8)" text-anchor="middle">Sainik Schools</text>
  
  <rect x="680" y="200" width="250" height="100" rx="12" fill="rgba(255,255,255,0.15)"/>
  <text x="805" y="240" font-family="Arial, sans-serif" font-size="36" font-weight="bold" fill="#F6D835" text-anchor="middle">2.5L+</text>
  <text x="805" y="270" font-family="Arial, sans-serif" font-size="14" fill="rgba(255,255,255,0.8)" text-anchor="middle">Annual Applicants</text>
  
  <!-- Book icon -->
  <rect x="680" y="350" width="120" height="120" rx="16" fill="rgba(255,255,255,0.1)"/>
  <text x="740" y="420" font-family="Arial, sans-serif" font-size="48" text-anchor="middle">📚</text>
  
  <!-- Trophy icon -->
  <rect x="820" y="350" width="120" height="120" rx="16" fill="rgba(255,255,255,0.1)"/>
  <text x="880" y="420" font-family="Arial, sans-serif" font-size="48" text-anchor="middle">🏆</text>
  
  <!-- CTA -->
  <rect x="680" y="520" width="280" height="50" rx="25" fill="#F6D835"/>
  <text x="820" y="551" font-family="Arial, sans-serif" font-size="18" font-weight="bold" fill="#111" text-anchor="middle">Read Complete Guide →</text>
  
  <!-- Bottom logos -->
  <rect x="680" y="600" width="280" height="60" rx="12" fill="rgba(255,255,255,0.1)"/>
  <text x="820" y="636" font-family="Arial, sans-serif" font-size="14" fill="rgba(255,255,255,0.7)" text-anchor="middle">Powered by SS Guide | jgps.in</text>
</svg>
